<svg xmlns="http://www.w3.org/2000/svg" viewBox="0 0 32 32">
  <style>
    path {
      fill: none;
      stroke: #121212;
      stroke-width: 1.2;
      stroke-linecap: round;
      stroke-linejoin: round;
    }
    @media (prefers-color-scheme: dark) {
      path {
        stroke: #fcfcfc;
      }
    }
  </style>
  <!-- Wireframe Dodecahedron Projection -->
  <path d="M16 4.5L23.5 9.5M23.5 9.5L23.5 18.5M23.5 18.5L16 23.5M16 23.5L8.5 18.5M8.5 18.5L8.5 9.5M8.5 9.5L16 4.5M16 4.5L16 11.5M23.5 9.5L18.5 14M23.5 18.5L18.5 21M16 23.5L16 27.5M8.5 18.5L13.5 21M8.5 9.5L13.5 14M16 11.5L13.5 14M16 11.5L18.5 14M18.5 14L18.5 21M18.5 21L16 27.5M16 27.5L13.5 21M13.5 21L13.5 14" />
  <circle cx="16" cy="16" r="0.5" fill="currentColor" opacity="0.3" />
</svg>
