<svg viewBox="0 0 24 24" fill="currentColor" xmlns="http://www.w3.org/2000/svg">
  <path d="M20.447 20.452h-3.554v-5.569c0-1.328-.475-2.236-1.986-2.236-1.081 0-1.722.722-2.004 1.418-.103.249-.129.597-.129.946v5.441h-3.554s.05-8.806 0-9.722h3.554v1.375c.427-.659 1.191-1.595 2.897-1.595 2.117 0 3.704 1.384 3.704 4.362v5.58zM5.337 8.855c-1.144 0-1.915-.758-1.915-1.705 0-.955.77-1.71 1.963-1.71 1.192 0 1.925.75 1.937 1.71 0 .947-.745 1.705-1.985 1.705zm1.946 11.597H3.392V9.626h3.891v10.826zM22.224 0H1.771C.792 0 0 .774 0 1.729v20.542C0 23.227.792 24 1.771 24h20.451C23.2 24 24 23.227 24 22.271V1.729C24 .774 23.2 0 22.224 0z"/>
</svg>